<?xml version="1.0" encoding="utf-8"?>
<!-- Generator: Adobe Illustrator 27.0.1, SVG Export Plug-In . SVG Version: 6.00 Build 0)  -->
<svg version="1.1" id="レイヤー_1" xmlns="http://www.w3.org/2000/svg" xmlns:xlink="http://www.w3.org/1999/xlink" x="0px"
	 y="0px" viewBox="0 0 135.5 137.1" style="enable-background:new 0 0 135.5 137.1;" xml:space="preserve">
<g>
	<path d="M68.1,6.2C68,6,67.8,6,67.6,5.9c-0.2-0.1-0.4-0.1-0.6-0.1c-0.2,0-0.4,0-0.6,0.1C66.3,6,66.1,6.1,66,6.3s-0.2,0.3-0.3,0.5
		c-0.1,0.2-0.1,0.4-0.1,0.6c0,0.2,0,0.4,0.1,0.6c0.1,0.2,0.2,0.4,0.3,0.5s0.3,0.2,0.5,0.3c0.2,0.1,0.4,0.1,0.6,0.1
		c0.2,0,0.5-0.1,0.7-0.2c0.2-0.1,0.4-0.3,0.5-0.4l-0.7,0l0-1.5l2.8,0l0,2.4C70.4,9.4,70.2,9.7,70,10c-0.2,0.2-0.5,0.5-0.8,0.6
		c-0.3,0.2-0.6,0.3-0.9,0.4c-0.3,0.1-0.7,0.2-1,0.2c-0.5,0-1-0.1-1.5-0.3s-0.9-0.5-1.2-0.8c-0.4-0.3-0.6-0.7-0.8-1.2
		c-0.2-0.5-0.3-1-0.3-1.5c0-0.5,0.1-1,0.3-1.5S64,5,64.3,4.7C64.7,4.3,65,4,65.5,3.8C66,3.6,66.4,3.5,67,3.5c0.4,0,0.8,0,1.1,0.1
		c0.3,0.1,0.6,0.2,0.8,0.3c0.2,0.1,0.4,0.2,0.6,0.4L68.1,6.2z M68.2,4.7c-0.1,0-0.2-0.1-0.3-0.1c-0.1,0-0.2-0.1-0.4-0.1
		c-0.1,0-0.3,0-0.5,0c-0.4,0-0.8,0.1-1.1,0.2c-0.3,0.1-0.6,0.3-0.9,0.6c-0.2,0.2-0.4,0.5-0.6,0.9c-0.1,0.3-0.2,0.7-0.2,1.1
		c0,0.4,0.1,0.8,0.2,1.1c0.2,0.3,0.4,0.6,0.6,0.9c0.3,0.2,0.6,0.4,0.9,0.6s0.7,0.2,1.1,0.2c0.5,0,1-0.1,1.4-0.4c0.4-0.2,0.7-0.6,1-1
		l0-1.4l-1.2,0l0,0.3l0.9,0l0,1.1c-0.2,0.3-0.5,0.6-0.9,0.8c-0.4,0.2-0.8,0.3-1.2,0.3c-0.4,0-0.7,0-1-0.2c-0.3-0.1-0.6-0.3-0.8-0.5
		C65.2,9,65,8.7,64.8,8.4c-0.1-0.3-0.2-0.7-0.2-1c0-0.4,0.1-0.7,0.2-1c0.1-0.3,0.3-0.6,0.5-0.8c0.2-0.2,0.5-0.4,0.8-0.5
		c0.3-0.1,0.6-0.2,1-0.2c0.1,0,0.3,0,0.4,0s0.2,0,0.3,0.1C67.9,4.9,67.9,5,68,5L68.2,4.7z"/>
	<path d="M71.8,3.7L74.3,4c0.5,0,0.9,0.2,1.3,0.3c0.4,0.2,0.7,0.4,1,0.7s0.5,0.6,0.6,1c0.1,0.4,0.2,0.8,0.1,1.2
		c0,0.4-0.1,0.7-0.2,0.9c-0.1,0.2-0.3,0.4-0.4,0.6c-0.2,0.2-0.3,0.3-0.5,0.4l1.1,2.5l-2.7-0.3l-0.9-2l-0.2,1.8L71,11L71.8,3.7z
		 M73.6,8.7c0.3,0,0.6,0,0.8,0l0.9,1.9l0.3,0l-0.9-2c0.4-0.1,0.7-0.3,1-0.5C76,7.8,76.1,7.5,76.2,7c0-0.3,0-0.6-0.1-0.9
		s-0.2-0.5-0.4-0.7c-0.2-0.2-0.4-0.3-0.7-0.4c-0.3-0.1-0.6-0.2-0.9-0.2l-1.2-0.1l-0.6,5.5l0.3,0l0.2-1.7L73.6,8.7z M72.7,8.4L73,5
		l0.9,0.1c0.7,0.1,1.2,0.3,1.5,0.6C75.8,6,75.9,6.5,75.9,7c-0.1,0.5-0.3,0.9-0.7,1.2c-0.4,0.2-0.9,0.3-1.6,0.3L72.7,8.4z M73.7,7.6
		l0.1,0c0.3,0,0.5,0,0.7-0.1c0.2-0.1,0.3-0.3,0.4-0.6s0-0.5-0.2-0.7C74.5,6.1,74.3,6,74,5.9l-0.1,0L73.7,7.6z"/>
	<path d="M77.9,8c0.1-0.5,0.3-1,0.6-1.4c0.3-0.4,0.7-0.8,1.1-1C80,5.4,80.5,5.2,81,5.1c0.5-0.1,1-0.1,1.5,0s1,0.3,1.4,0.6
		c0.4,0.3,0.8,0.7,1,1.1s0.4,0.9,0.5,1.4c0.1,0.5,0.1,1,0,1.5c-0.1,0.5-0.3,1-0.6,1.4c-0.3,0.4-0.7,0.8-1.1,1
		c-0.4,0.3-0.9,0.4-1.4,0.5c-0.5,0.1-1,0.1-1.5,0c-0.5-0.1-1-0.3-1.4-0.6c-0.4-0.3-0.8-0.7-1-1.1c-0.3-0.4-0.4-0.9-0.5-1.4
		C77.8,9.1,77.8,8.6,77.9,8z M78.9,8.3c-0.1,0.4-0.1,0.8,0,1.1c0.1,0.4,0.2,0.7,0.4,1s0.4,0.6,0.7,0.8c0.3,0.2,0.6,0.4,1,0.5
		c0.4,0.1,0.8,0.1,1.1,0s0.7-0.2,1-0.4c0.3-0.2,0.6-0.4,0.8-0.7s0.4-0.6,0.5-1c0.1-0.4,0.1-0.8,0-1.1c-0.1-0.4-0.2-0.7-0.4-1
		c-0.2-0.3-0.4-0.6-0.7-0.8s-0.6-0.4-1-0.5c-0.4-0.1-0.8-0.1-1.1,0c-0.4,0.1-0.7,0.2-1,0.4s-0.6,0.4-0.8,0.7
		C79.1,7.5,79,7.9,78.9,8.3z M81.1,11.4c-0.3-0.1-0.6-0.2-0.9-0.4c-0.3-0.2-0.5-0.4-0.7-0.7c-0.2-0.3-0.3-0.6-0.4-0.9s-0.1-0.7,0-1
		c0.1-0.3,0.2-0.6,0.4-0.9c0.2-0.3,0.4-0.5,0.7-0.7s0.6-0.3,0.9-0.4c0.3-0.1,0.7-0.1,1,0c0.3,0.1,0.6,0.2,0.9,0.4s0.5,0.4,0.7,0.7
		c0.2,0.3,0.3,0.6,0.4,0.9c0.1,0.3,0.1,0.7,0,1s-0.2,0.6-0.4,0.9c-0.2,0.3-0.4,0.5-0.7,0.7c-0.3,0.2-0.6,0.3-0.9,0.4
		C81.8,11.4,81.4,11.4,81.1,11.4z M80.2,8.5c0,0.2-0.1,0.4,0,0.6s0.1,0.4,0.2,0.6c0.1,0.2,0.2,0.3,0.4,0.4s0.4,0.2,0.6,0.3
		s0.4,0.1,0.6,0s0.4-0.1,0.6-0.2s0.3-0.2,0.4-0.4c0.1-0.2,0.2-0.4,0.3-0.6c0-0.2,0.1-0.4,0-0.6S83.1,8.2,83,8.1
		c-0.1-0.2-0.2-0.3-0.4-0.4c-0.2-0.1-0.4-0.2-0.6-0.3c-0.2,0-0.4-0.1-0.6,0S81,7.5,80.8,7.6c-0.2,0.1-0.3,0.2-0.4,0.4
		C80.3,8.2,80.2,8.3,80.2,8.5z"/>
	<path d="M86.1,10c0.2-0.5,0.5-0.9,0.8-1.3c0.4-0.4,0.8-0.7,1.2-0.9c0.4-0.2,0.9-0.3,1.4-0.3c0.5,0,1,0.1,1.5,0.2
		c0.5,0.2,0.9,0.5,1.3,0.8s0.7,0.8,0.9,1.2s0.3,0.9,0.3,1.4c0,0.5-0.1,1-0.2,1.5s-0.5,0.9-0.8,1.3c-0.4,0.4-0.8,0.7-1.2,0.9
		c-0.4,0.2-0.9,0.3-1.4,0.3c-0.5,0-1-0.1-1.5-0.2c-0.5-0.2-0.9-0.5-1.3-0.8c-0.4-0.4-0.7-0.8-0.9-1.2c-0.2-0.4-0.3-0.9-0.3-1.4
		C85.8,11,85.9,10.5,86.1,10z M87.1,10.3c-0.1,0.4-0.2,0.7-0.2,1.1c0,0.4,0.1,0.7,0.2,1.1c0.1,0.3,0.4,0.6,0.6,0.9
		c0.3,0.3,0.6,0.5,0.9,0.6c0.4,0.1,0.7,0.2,1.1,0.2c0.4,0,0.7-0.1,1.1-0.2c0.3-0.1,0.6-0.4,0.9-0.6s0.5-0.6,0.6-0.9
		c0.1-0.4,0.2-0.7,0.2-1.1c0-0.4-0.1-0.7-0.2-1.1c-0.1-0.3-0.4-0.6-0.6-0.9c-0.3-0.3-0.6-0.5-0.9-0.6c-0.4-0.1-0.7-0.2-1.1-0.2
		c-0.4,0-0.7,0.1-1.1,0.2c-0.3,0.1-0.6,0.4-0.9,0.6C87.4,9.6,87.2,10,87.1,10.3z M88.8,13.7c-0.3-0.1-0.6-0.3-0.9-0.5
		s-0.4-0.5-0.6-0.8c-0.1-0.3-0.2-0.6-0.2-0.9c0-0.3,0-0.7,0.2-1c0.1-0.3,0.3-0.6,0.5-0.9c0.2-0.2,0.5-0.4,0.8-0.6
		c0.3-0.1,0.6-0.2,0.9-0.2c0.3,0,0.7,0,1,0.2c0.3,0.1,0.6,0.3,0.9,0.5s0.4,0.5,0.6,0.8c0.1,0.3,0.2,0.6,0.2,0.9c0,0.3,0,0.7-0.2,1
		s-0.3,0.6-0.5,0.9c-0.2,0.2-0.5,0.4-0.8,0.6s-0.6,0.2-0.9,0.2C89.5,13.9,89.2,13.8,88.8,13.7z M88.3,10.8c-0.1,0.2-0.1,0.4-0.1,0.6
		s0.1,0.4,0.1,0.6c0.1,0.2,0.2,0.3,0.3,0.5s0.3,0.2,0.5,0.3c0.2,0.1,0.4,0.1,0.6,0.1c0.2,0,0.4-0.1,0.6-0.1c0.2-0.1,0.3-0.2,0.5-0.3
		s0.2-0.3,0.3-0.5c0.1-0.2,0.1-0.4,0.1-0.6c0-0.2-0.1-0.4-0.1-0.6s-0.2-0.3-0.3-0.5s-0.3-0.2-0.5-0.3c-0.2-0.1-0.4-0.1-0.6-0.1
		c-0.2,0-0.4,0.1-0.6,0.1s-0.3,0.2-0.5,0.3C88.5,10.4,88.4,10.6,88.3,10.8z"/>
	<path d="M97.6,10.8l-0.4,3.4l2.6-2.2l2.3,1.2l-6,5.1l-1.7-0.9l0.9-7.8L97.6,10.8z M95.7,17.1l4.5-3.9l-0.3-0.1l-4.1,3.5l0.6-5.4
		L96.2,11L95.5,17L95.7,17.1z"/>
	<path d="M102.7,13.6l3.6,2.4l-1.1,1.6l-1.6-1.1l-0.5,0.7l1.6,1.1l-1,1.5l-1.6-1.1l-0.5,0.7l1.7,1.1l-1.1,1.6l-3.7-2.5L102.7,13.6z
		 M102,21l0.1-0.2l-1.8-1.2l1.3-2l1.7,1.2l0.1-0.2l-1.7-1.2l1.3-2l1.8,1.2l0.1-0.2l-2.1-1.4l-3.1,4.6L102,21z"/>
	<path d="M117.4,30.1c0-0.2,0-0.4-0.1-0.6s-0.2-0.4-0.3-0.5c-0.1-0.2-0.3-0.3-0.5-0.4c-0.2-0.1-0.3-0.1-0.5-0.1s-0.4,0-0.6,0.1
		s-0.4,0.2-0.5,0.3s-0.3,0.3-0.4,0.5s-0.2,0.4-0.2,0.6c0,0.2,0,0.4,0.1,0.6s0.2,0.4,0.3,0.5c0.2,0.2,0.3,0.3,0.6,0.4
		c0.2,0.1,0.4,0.1,0.7,0.1l-0.4-0.5l1.2-1l1.8,2.2l-1.9,1.6c-0.3,0.1-0.7,0.1-1,0.1c-0.3,0-0.7-0.1-1-0.2c-0.3-0.1-0.6-0.3-0.9-0.5
		c-0.3-0.2-0.5-0.4-0.8-0.7c-0.3-0.4-0.6-0.9-0.7-1.3c-0.1-0.5-0.2-1-0.2-1.5c0-0.5,0.2-1,0.4-1.4c0.2-0.5,0.6-0.9,1-1.2
		c0.4-0.3,0.9-0.6,1.3-0.7c0.5-0.2,1-0.2,1.4-0.2c0.5,0,0.9,0.2,1.4,0.4s0.8,0.5,1.2,0.9c0.3,0.3,0.5,0.6,0.6,0.9
		c0.1,0.3,0.2,0.5,0.3,0.8c0.1,0.3,0.1,0.5,0.1,0.7L117.4,30.1z M118.5,29.3c0-0.1-0.1-0.2-0.1-0.3c0-0.1-0.1-0.2-0.2-0.3
		s-0.2-0.2-0.3-0.4c-0.2-0.3-0.5-0.5-0.9-0.7s-0.7-0.3-1-0.3c-0.3,0-0.7,0-1.1,0.1c-0.4,0.1-0.7,0.3-1,0.6s-0.6,0.6-0.7,0.9
		c-0.2,0.3-0.3,0.7-0.3,1c0,0.4,0,0.7,0.1,1.1c0.1,0.4,0.3,0.7,0.5,1c0.3,0.4,0.7,0.7,1.2,0.8c0.4,0.2,0.9,0.2,1.4,0.2l1.1-0.9
		l-0.7-0.9l-0.2,0.2l0.6,0.7l-0.8,0.7c-0.4,0-0.8,0-1.2-0.2c-0.4-0.2-0.7-0.4-1-0.7c-0.2-0.3-0.4-0.6-0.5-0.9s-0.1-0.6-0.1-0.9
		c0-0.3,0.1-0.6,0.3-0.9c0.2-0.3,0.4-0.6,0.7-0.8c0.3-0.2,0.6-0.4,0.9-0.5c0.3-0.1,0.6-0.1,1-0.1c0.3,0,0.6,0.1,0.9,0.3
		c0.3,0.2,0.5,0.4,0.8,0.6c0.1,0.1,0.2,0.2,0.2,0.3s0.1,0.2,0.1,0.3c0,0.1,0.1,0.2,0.1,0.3L118.5,29.3z"/>
	<path d="M121.5,31.4l1.4,2.1c0.3,0.4,0.4,0.8,0.5,1.2c0.1,0.4,0.1,0.8,0.1,1.2c0,0.4-0.2,0.7-0.4,1.1c-0.2,0.3-0.5,0.6-0.9,0.9
		c-0.3,0.2-0.6,0.3-0.9,0.4c-0.3,0.1-0.5,0.1-0.7,0.1c-0.2,0-0.5-0.1-0.7-0.2l-1.3,2.5l-1.5-2.3l1-1.9l-1.6,1l-1.3-2L121.5,31.4z
		 M118.8,35.9c0.2,0.2,0.3,0.5,0.5,0.7l-0.9,1.8l0.2,0.3l1-1.9c0.3,0.3,0.7,0.4,1.1,0.4c0.4,0,0.8-0.1,1.1-0.3
		c0.3-0.2,0.5-0.4,0.6-0.6c0.1-0.2,0.2-0.5,0.2-0.8c0-0.3,0-0.6-0.1-0.8c-0.1-0.3-0.2-0.6-0.4-0.9l-0.6-1l-4.7,3l0.2,0.2l1.4-0.9
		L118.8,35.9z M118.5,35l2.8-1.8l0.5,0.8c0.4,0.6,0.5,1.1,0.5,1.6c0,0.5-0.3,0.9-0.7,1.2c-0.5,0.3-0.9,0.4-1.4,0.2
		c-0.4-0.2-0.9-0.5-1.2-1.1L118.5,35z M119.8,35.3l0.1,0.1c0.2,0.2,0.3,0.4,0.5,0.5s0.4,0.1,0.7-0.1c0.2-0.2,0.4-0.4,0.4-0.6
		c0-0.2-0.1-0.5-0.2-0.7l-0.1-0.1L119.8,35.3z"/>
	<path d="M122,38.9c0.5-0.2,1-0.4,1.5-0.4c0.5,0,1,0,1.5,0.2c0.5,0.2,0.9,0.4,1.3,0.7s0.7,0.7,0.9,1.2c0.2,0.5,0.4,1,0.4,1.5
		c0,0.5,0,1-0.2,1.5c-0.2,0.5-0.4,0.9-0.7,1.3c-0.3,0.4-0.7,0.7-1.2,0.9c-0.5,0.2-1,0.4-1.5,0.4c-0.5,0-1,0-1.5-0.2
		c-0.5-0.2-0.9-0.4-1.3-0.7c-0.4-0.3-0.7-0.7-0.9-1.2s-0.4-1-0.4-1.5c0-0.5,0-1,0.2-1.5s0.4-0.9,0.7-1.3
		C121.1,39.4,121.5,39.1,122,38.9z M122.4,39.8c-0.4,0.2-0.6,0.4-0.9,0.7c-0.2,0.3-0.4,0.6-0.5,0.9s-0.2,0.7-0.2,1.1
		c0,0.4,0.1,0.7,0.3,1.1c0.2,0.4,0.4,0.6,0.7,0.9c0.3,0.2,0.6,0.4,0.9,0.5s0.7,0.2,1.1,0.2s0.7-0.1,1.1-0.3s0.6-0.4,0.9-0.7
		c0.2-0.3,0.4-0.6,0.5-0.9s0.2-0.7,0.2-1.1c0-0.4-0.1-0.7-0.3-1.1c-0.2-0.4-0.4-0.6-0.7-0.9c-0.3-0.2-0.6-0.4-0.9-0.5
		s-0.7-0.2-1.1-0.2C123.2,39.6,122.8,39.7,122.4,39.8z M121.4,43.5c-0.2-0.3-0.2-0.6-0.2-1c0-0.3,0-0.7,0.1-1s0.3-0.6,0.5-0.8
		c0.2-0.3,0.5-0.5,0.8-0.6c0.3-0.2,0.6-0.2,1-0.3c0.3,0,0.7,0,1,0.1c0.3,0.1,0.6,0.3,0.8,0.5c0.3,0.2,0.5,0.5,0.6,0.8s0.2,0.6,0.3,1
		s0,0.7-0.1,1c-0.1,0.3-0.3,0.6-0.5,0.8c-0.2,0.3-0.5,0.5-0.8,0.6c-0.3,0.2-0.6,0.2-1,0.3c-0.3,0-0.7,0-1-0.1
		c-0.3-0.1-0.6-0.3-0.8-0.5C121.8,44,121.6,43.8,121.4,43.5z M123,41c-0.2,0.1-0.4,0.2-0.5,0.4c-0.1,0.2-0.2,0.3-0.3,0.5
		c-0.1,0.2-0.1,0.4-0.1,0.6c0,0.2,0.1,0.4,0.2,0.6s0.2,0.4,0.4,0.5c0.2,0.1,0.3,0.2,0.5,0.3c0.2,0.1,0.4,0.1,0.6,0.1
		c0.2,0,0.4-0.1,0.6-0.2c0.2-0.1,0.4-0.2,0.5-0.4c0.1-0.2,0.2-0.3,0.3-0.5s0.1-0.4,0.1-0.6c0-0.2-0.1-0.4-0.2-0.6
		c-0.1-0.2-0.2-0.4-0.4-0.5c-0.2-0.1-0.3-0.2-0.5-0.3c-0.2-0.1-0.4-0.1-0.6-0.1C123.4,40.8,123.2,40.9,123,41z"/>
	<path d="M125.6,46.5c0.5-0.2,1-0.2,1.5-0.2s1,0.2,1.4,0.4c0.4,0.2,0.8,0.5,1.2,0.9c0.3,0.4,0.6,0.8,0.7,1.3c0.2,0.5,0.2,1,0.2,1.5
		c0,0.5-0.2,1-0.4,1.4c-0.2,0.4-0.5,0.8-0.9,1.2c-0.4,0.3-0.8,0.6-1.3,0.8c-0.5,0.2-1,0.2-1.5,0.2c-0.5,0-1-0.2-1.4-0.4
		c-0.4-0.2-0.8-0.5-1.2-0.9c-0.3-0.4-0.6-0.8-0.8-1.3c-0.2-0.5-0.2-1-0.2-1.5c0-0.5,0.2-1,0.4-1.4s0.5-0.8,0.9-1.2
		C124.7,46.9,125.1,46.7,125.6,46.5z M126,47.5c-0.4,0.1-0.7,0.3-1,0.5c-0.3,0.2-0.5,0.5-0.7,0.9s-0.3,0.7-0.3,1s0,0.7,0.1,1.1
		s0.3,0.7,0.5,1c0.2,0.3,0.5,0.5,0.9,0.7c0.3,0.2,0.7,0.3,1,0.3c0.4,0,0.7,0,1.1-0.1c0.4-0.1,0.7-0.3,1-0.5c0.3-0.2,0.5-0.5,0.7-0.9
		c0.2-0.3,0.3-0.7,0.3-1s0-0.7-0.1-1.1s-0.3-0.7-0.5-1c-0.2-0.3-0.5-0.5-0.9-0.7c-0.3-0.2-0.7-0.3-1-0.3
		C126.7,47.3,126.3,47.4,126,47.5z M124.4,51c-0.1-0.3-0.1-0.7-0.1-1c0-0.3,0.1-0.6,0.3-0.9s0.3-0.5,0.6-0.8
		c0.2-0.2,0.5-0.4,0.9-0.5c0.3-0.1,0.7-0.1,1-0.1c0.3,0,0.6,0.1,0.9,0.3c0.3,0.1,0.5,0.3,0.8,0.6c0.2,0.2,0.4,0.5,0.5,0.9
		c0.1,0.3,0.1,0.7,0.1,1s-0.1,0.6-0.3,0.9s-0.3,0.5-0.6,0.8c-0.2,0.2-0.5,0.4-0.9,0.5c-0.3,0.1-0.7,0.1-1,0.1
		c-0.3,0-0.6-0.1-0.9-0.3s-0.5-0.3-0.8-0.6C124.7,51.6,124.5,51.3,124.4,51z M126.3,48.7c-0.2,0.1-0.4,0.2-0.5,0.3
		c-0.2,0.1-0.3,0.3-0.4,0.5c-0.1,0.2-0.1,0.4-0.2,0.6c0,0.2,0,0.4,0.1,0.6c0.1,0.2,0.2,0.4,0.3,0.5c0.1,0.2,0.3,0.3,0.5,0.4
		c0.2,0.1,0.4,0.1,0.6,0.2c0.2,0,0.4,0,0.6-0.1c0.2-0.1,0.4-0.2,0.5-0.3c0.2-0.1,0.3-0.3,0.4-0.5c0.1-0.2,0.1-0.4,0.2-0.6
		c0-0.2,0-0.4-0.1-0.6c-0.1-0.2-0.2-0.4-0.3-0.5c-0.1-0.2-0.3-0.3-0.5-0.4c-0.2-0.1-0.4-0.1-0.6-0.2
		C126.8,48.6,126.5,48.7,126.3,48.7z"/>
	<path d="M132.2,56l-2.9,1.8l3.4,0.6l0.5,2.5l-7.7-1.5l-0.4-1.9l6.7-4.2L132.2,56z M126.1,58.5l5.9,1.1l-0.1-0.3l-5.4-1l4.6-2.9
		l-0.1-0.3l-5.1,3.2L126.1,58.5z"/>
	<path d="M133.1,61.7l0.4,4.3l-1.9,0.2l-0.2-2l-0.8,0.1l0.2,1.9l-1.8,0.2l-0.2-1.9l-0.8,0.1l0.2,2.1l-1.9,0.2l-0.4-4.4L133.1,61.7z
		 M127,65.8l0.3,0l-0.2-2.2l2.4-0.2l0.2,2.1l0.3,0l-0.2-2.1l2.4-0.2l0.2,2.2l0.3,0l-0.2-2.5l-5.6,0.5L127,65.8z"/>
	<path d="M129.4,83.5c0.1-0.1,0.3-0.2,0.4-0.4c0.1-0.2,0.2-0.4,0.2-0.6c0-0.2,0-0.4,0-0.6c0-0.2-0.1-0.4-0.2-0.5
		c-0.1-0.2-0.2-0.3-0.4-0.4s-0.4-0.2-0.6-0.2c-0.2,0-0.4,0-0.6,0c-0.2,0-0.4,0.1-0.5,0.2c-0.2,0.1-0.3,0.2-0.4,0.4
		c-0.1,0.2-0.2,0.4-0.2,0.6c-0.1,0.2,0,0.5,0,0.7c0.1,0.2,0.2,0.4,0.3,0.6l0.1-0.6L129,83l-0.6,2.8l-2.4-0.5
		c-0.3-0.2-0.5-0.5-0.7-0.8s-0.3-0.6-0.5-0.9c-0.1-0.3-0.2-0.7-0.2-1s0-0.7,0.1-1.1c0.1-0.5,0.3-1,0.6-1.4c0.3-0.4,0.6-0.8,1-1
		c0.4-0.3,0.9-0.5,1.4-0.6c0.5-0.1,1-0.1,1.5,0c0.5,0.1,1,0.3,1.4,0.6c0.4,0.3,0.8,0.6,1,1c0.3,0.4,0.5,0.8,0.6,1.3
		c0.1,0.5,0.1,1,0,1.5c-0.1,0.4-0.2,0.7-0.3,1s-0.3,0.5-0.4,0.7c-0.2,0.2-0.3,0.4-0.5,0.5L129.4,83.5z M130.8,83.9
		c0.1-0.1,0.1-0.2,0.2-0.3c0-0.1,0.1-0.2,0.1-0.3c0.1-0.1,0.1-0.3,0.1-0.4c0.1-0.4,0.1-0.8,0-1.1c-0.1-0.4-0.2-0.7-0.4-1
		c-0.2-0.3-0.4-0.5-0.7-0.8c-0.3-0.2-0.7-0.4-1.1-0.4s-0.8-0.1-1.2,0c-0.4,0.1-0.7,0.2-1,0.4c-0.3,0.2-0.5,0.5-0.7,0.8
		s-0.3,0.6-0.4,1c-0.1,0.5-0.1,1,0.1,1.4s0.4,0.8,0.7,1.2l1.4,0.3l0.2-1.1l-0.3-0.1l-0.2,0.9l-1.1-0.2c-0.3-0.3-0.5-0.6-0.6-1
		c-0.1-0.4-0.1-0.8,0-1.2c0.1-0.3,0.2-0.7,0.4-0.9c0.2-0.3,0.4-0.5,0.7-0.7c0.3-0.2,0.6-0.3,0.9-0.4c0.3-0.1,0.7-0.1,1,0
		c0.4,0.1,0.7,0.2,1,0.4c0.3,0.2,0.5,0.4,0.7,0.7c0.2,0.3,0.3,0.6,0.3,0.9c0.1,0.3,0,0.7,0,1c0,0.1-0.1,0.2-0.1,0.4
		c0,0.1-0.1,0.2-0.1,0.3c0,0.1-0.1,0.2-0.1,0.3L130.8,83.9z"/>
	<path d="M131,87.6l-0.8,2.4c-0.1,0.4-0.3,0.8-0.6,1.2c-0.2,0.3-0.5,0.6-0.9,0.8c-0.3,0.2-0.7,0.3-1.1,0.4c-0.4,0-0.8,0-1.2-0.2
		c-0.3-0.1-0.6-0.3-0.8-0.4c-0.2-0.2-0.4-0.4-0.5-0.5c-0.1-0.2-0.2-0.4-0.3-0.6l-2.7,0.5l0.9-2.6l2.1-0.5l-1.8-0.6l0.7-2.2L131,87.6
		z M125.7,88.2c-0.1,0.3-0.2,0.5-0.2,0.8l-2,0.4l-0.1,0.3l2.1-0.5c0,0.4,0.1,0.8,0.3,1.1c0.2,0.3,0.5,0.5,1,0.7
		c0.3,0.1,0.6,0.1,0.9,0.1c0.3,0,0.5-0.1,0.7-0.3c0.2-0.2,0.4-0.4,0.6-0.6c0.2-0.3,0.3-0.5,0.4-0.9l0.4-1.1l-5.3-1.8l-0.1,0.3
		l1.6,0.5L125.7,88.2z M126.3,87.5l3.2,1.1l-0.3,0.9c-0.2,0.6-0.5,1.1-0.9,1.3c-0.4,0.3-0.9,0.3-1.4,0.1s-0.8-0.5-1-0.9
		s-0.1-1,0.1-1.6L126.3,87.5z M126.8,88.7l0,0.1c-0.1,0.3-0.1,0.5,0,0.7c0.1,0.2,0.2,0.4,0.5,0.5c0.3,0.1,0.5,0.1,0.7-0.1
		c0.2-0.1,0.3-0.3,0.4-0.6l0-0.1L126.8,88.7z"/>
	<path d="M125.4,92.6c0.5,0.2,0.9,0.5,1.2,0.9c0.3,0.4,0.6,0.8,0.8,1.3c0.2,0.5,0.2,1,0.2,1.5c0,0.5-0.1,1-0.4,1.5
		c-0.2,0.5-0.5,0.9-0.9,1.2c-0.4,0.3-0.8,0.6-1.3,0.8c-0.5,0.2-1,0.2-1.5,0.2c-0.5,0-1-0.1-1.5-0.4s-0.9-0.5-1.2-0.9
		c-0.3-0.4-0.6-0.8-0.7-1.3c-0.2-0.5-0.2-1-0.2-1.5c0-0.5,0.1-1,0.4-1.5c0.2-0.5,0.5-0.9,0.9-1.2c0.4-0.3,0.8-0.6,1.3-0.7
		c0.5-0.2,1-0.2,1.5-0.2S125,92.4,125.4,92.6z M125,93.6c-0.4-0.2-0.7-0.3-1.1-0.3s-0.7,0-1.1,0.2c-0.3,0.1-0.7,0.3-0.9,0.5
		s-0.5,0.5-0.7,0.9S121,95.6,121,96c0,0.4,0,0.7,0.2,1.1c0.1,0.3,0.3,0.7,0.5,0.9c0.2,0.3,0.5,0.5,0.9,0.7c0.4,0.2,0.7,0.3,1.1,0.3
		c0.4,0,0.7,0,1.1-0.2s0.7-0.3,0.9-0.5c0.3-0.2,0.5-0.5,0.7-0.9s0.3-0.7,0.3-1.1c0-0.4,0-0.7-0.2-1.1c-0.1-0.3-0.3-0.7-0.5-0.9
		C125.7,93.9,125.4,93.7,125,93.6z M121.5,95c0.2-0.3,0.4-0.6,0.6-0.8c0.3-0.2,0.5-0.4,0.8-0.5c0.3-0.1,0.6-0.2,1-0.1
		c0.3,0,0.7,0.1,1,0.2c0.3,0.2,0.6,0.4,0.8,0.6s0.4,0.5,0.5,0.8s0.2,0.6,0.1,1c0,0.3-0.1,0.7-0.2,1c-0.2,0.3-0.4,0.6-0.6,0.8
		c-0.2,0.2-0.5,0.4-0.8,0.5c-0.3,0.1-0.6,0.2-1,0.1c-0.3,0-0.7-0.1-1-0.2c-0.3-0.2-0.6-0.4-0.8-0.6c-0.2-0.3-0.4-0.5-0.5-0.8
		s-0.2-0.6-0.1-1S121.4,95.3,121.5,95z M124.5,94.7c-0.2-0.1-0.4-0.1-0.6-0.1c-0.2,0-0.4,0-0.6,0.1c-0.2,0.1-0.4,0.2-0.5,0.3
		c-0.2,0.1-0.3,0.3-0.4,0.5c-0.1,0.2-0.1,0.4-0.1,0.6c0,0.2,0,0.4,0.1,0.6c0.1,0.2,0.2,0.4,0.3,0.5c0.1,0.2,0.3,0.3,0.5,0.4
		c0.2,0.1,0.4,0.1,0.6,0.1c0.2,0,0.4,0,0.6-0.1s0.4-0.2,0.5-0.3c0.2-0.1,0.3-0.3,0.4-0.5c0.1-0.2,0.1-0.4,0.2-0.6
		c0-0.2,0-0.4-0.1-0.6c-0.1-0.2-0.2-0.4-0.3-0.5C124.8,94.9,124.6,94.8,124.5,94.7z"/>
	<path d="M121.8,100.2c0.4,0.3,0.8,0.6,1.1,1.1s0.5,0.9,0.6,1.4c0.1,0.5,0.1,1,0,1.5c-0.1,0.5-0.3,1-0.6,1.4
		c-0.3,0.4-0.6,0.8-1.1,1.1c-0.4,0.3-0.9,0.5-1.4,0.6c-0.5,0.1-1,0.1-1.5,0s-1-0.3-1.4-0.6c-0.4-0.3-0.8-0.6-1.1-1.1
		c-0.3-0.4-0.5-0.9-0.6-1.4c-0.1-0.5-0.1-1,0-1.5c0.1-0.5,0.3-1,0.6-1.4c0.3-0.4,0.6-0.8,1.1-1.1s0.9-0.5,1.4-0.6
		c0.5-0.1,1-0.1,1.5,0S121.3,99.9,121.8,100.2z M121.2,101.1c-0.3-0.2-0.7-0.4-1-0.4c-0.4-0.1-0.7-0.1-1.1,0c-0.4,0.1-0.7,0.2-1,0.4
		c-0.3,0.2-0.6,0.5-0.8,0.8c-0.2,0.3-0.4,0.7-0.4,1s-0.1,0.7,0,1.1s0.2,0.7,0.4,1c0.2,0.3,0.5,0.6,0.8,0.8c0.3,0.2,0.7,0.4,1,0.4
		c0.4,0.1,0.7,0.1,1.1,0c0.4-0.1,0.7-0.2,1-0.4s0.6-0.5,0.8-0.8c0.2-0.3,0.4-0.7,0.4-1c0.1-0.4,0.1-0.7,0-1.1s-0.2-0.7-0.4-1
		C121.8,101.5,121.5,101.3,121.2,101.1z M117.5,102c0.2-0.3,0.4-0.5,0.7-0.7c0.3-0.2,0.6-0.3,0.9-0.4c0.3-0.1,0.6-0.1,1,0
		c0.3,0.1,0.6,0.2,0.9,0.4c0.3,0.2,0.5,0.4,0.7,0.7c0.2,0.3,0.3,0.6,0.4,0.9c0.1,0.3,0.1,0.6,0,1c-0.1,0.3-0.2,0.6-0.4,0.9
		c-0.2,0.3-0.4,0.5-0.7,0.7c-0.3,0.2-0.6,0.3-0.9,0.4c-0.3,0.1-0.6,0.1-1,0c-0.3-0.1-0.6-0.2-0.9-0.4c-0.3-0.2-0.5-0.4-0.7-0.7
		c-0.2-0.3-0.3-0.6-0.4-0.9c-0.1-0.3-0.1-0.6,0-1C117.2,102.6,117.3,102.3,117.5,102z M120.5,102.1c-0.2-0.1-0.4-0.2-0.6-0.2
		s-0.4,0-0.6,0c-0.2,0-0.4,0.1-0.5,0.2c-0.2,0.1-0.3,0.3-0.4,0.4s-0.2,0.4-0.2,0.6c0,0.2,0,0.4,0,0.6c0,0.2,0.1,0.4,0.2,0.5
		c0.1,0.2,0.3,0.3,0.4,0.4c0.2,0.1,0.4,0.2,0.6,0.2c0.2,0,0.4,0,0.6,0c0.2,0,0.4-0.1,0.5-0.2c0.2-0.1,0.3-0.3,0.4-0.4
		s0.2-0.4,0.2-0.6c0-0.2,0-0.4,0-0.6c0-0.2-0.1-0.4-0.2-0.5S120.7,102.3,120.5,102.1z"/>
	<path d="M118.4,111.2l-3.2-1.1l1.6,3l-1.7,1.9l-3.7-7l1.2-1.4l7.4,2.6L118.4,111.2z M112.7,108l2.8,5.3l0.2-0.2l-2.5-4.8l5.1,1.8
		l0.2-0.2l-5.6-2L112.7,108z"/>
	<path d="M114.6,115.5l-3.1,3l-1.3-1.4l1.4-1.4l-0.6-0.6l-1.4,1.3l-1.3-1.3l1.4-1.3l-0.6-0.6l-1.5,1.4l-1.3-1.4l3.2-3L114.6,115.5z
		 M107.5,113.3l0.2,0.2l1.6-1.5l1.7,1.7l-1.5,1.4l0.2,0.2l1.5-1.4l1.6,1.7l-1.6,1.5l0.2,0.2l1.8-1.7l-3.8-4L107.5,113.3z"/>
	<path d="M95.3,126.3c0.2,0,0.4,0,0.6,0c0.2,0,0.4-0.1,0.6-0.2c0.2-0.1,0.3-0.2,0.5-0.4s0.2-0.3,0.3-0.5c0.1-0.2,0.1-0.4,0-0.6
		s-0.1-0.4-0.2-0.6c-0.1-0.2-0.2-0.4-0.4-0.5s-0.3-0.2-0.5-0.3c-0.2-0.1-0.4-0.1-0.6-0.1c-0.2,0-0.4,0.1-0.6,0.2
		c-0.2,0.1-0.4,0.3-0.5,0.5s-0.2,0.4-0.3,0.6l0.6-0.3l0.7,1.4l-2.5,1.3l-1.1-2.2c0-0.3,0.1-0.7,0.2-1c0.1-0.3,0.2-0.6,0.4-0.9
		s0.4-0.6,0.7-0.8s0.5-0.4,0.9-0.6c0.5-0.2,1-0.4,1.5-0.4c0.5,0,1,0,1.5,0.2c0.5,0.1,0.9,0.4,1.3,0.7c0.4,0.3,0.7,0.7,1,1.2
		c0.2,0.5,0.4,1,0.4,1.5s0,1-0.1,1.4c-0.1,0.5-0.4,0.9-0.7,1.3c-0.3,0.4-0.7,0.7-1.2,0.9c-0.4,0.2-0.7,0.3-1,0.4
		c-0.3,0.1-0.6,0.1-0.8,0.1c-0.3,0-0.5,0-0.7-0.1L95.3,126.3z M95.8,127.6c0.1,0,0.2,0,0.3,0c0.1,0,0.2-0.1,0.4-0.1
		c0.1,0,0.3-0.1,0.4-0.2c0.3-0.2,0.6-0.4,0.9-0.7c0.2-0.3,0.4-0.6,0.5-0.9s0.2-0.7,0.1-1.1c0-0.4-0.1-0.7-0.3-1.1
		c-0.2-0.4-0.4-0.7-0.7-0.9s-0.6-0.4-0.9-0.5c-0.3-0.1-0.7-0.1-1.1-0.1c-0.4,0-0.7,0.1-1.1,0.3c-0.5,0.2-0.8,0.5-1.1,0.9
		c-0.3,0.4-0.4,0.8-0.5,1.3l0.7,1.3l1-0.5l-0.1-0.2l-0.8,0.4l-0.5-1c0.1-0.4,0.2-0.8,0.4-1.1s0.5-0.6,0.9-0.8c0.3-0.2,0.6-0.3,1-0.3
		c0.3,0,0.6,0,0.9,0.1c0.3,0.1,0.6,0.3,0.8,0.5c0.3,0.2,0.5,0.5,0.6,0.8c0.2,0.3,0.3,0.7,0.3,1s0,0.7-0.1,1s-0.3,0.6-0.5,0.8
		c-0.2,0.2-0.5,0.4-0.8,0.6c-0.1,0.1-0.2,0.1-0.3,0.1c-0.1,0-0.2,0.1-0.3,0.1c-0.1,0-0.2,0-0.3,0.1L95.8,127.6z"/>
	<path d="M93,130.1l-2.4,0.9c-0.4,0.2-0.9,0.3-1.3,0.3c-0.4,0-0.8,0-1.2-0.2c-0.4-0.1-0.7-0.3-1-0.6c-0.3-0.3-0.5-0.6-0.7-1.1
		c-0.1-0.3-0.2-0.7-0.2-0.9c0-0.3,0-0.5,0.1-0.7c0.1-0.2,0.2-0.4,0.3-0.6l-2.1-1.8l2.6-0.9l1.7,1.4l-0.6-1.7l2.2-0.8L93,130.1z
		 M89.2,126.4c-0.3,0.1-0.5,0.2-0.8,0.4l-1.6-1.3l-0.3,0.1l1.7,1.4c-0.3,0.3-0.5,0.6-0.7,0.9c-0.1,0.4-0.1,0.7,0.1,1.2
		c0.1,0.3,0.3,0.5,0.5,0.7s0.4,0.3,0.7,0.4s0.5,0.1,0.8,0.1s0.6-0.1,0.9-0.2l1.1-0.4l-1.9-5.2l-0.3,0.1l0.6,1.6L89.2,126.4z
		 M90.2,126.3l1.2,3.2l-0.8,0.3c-0.6,0.2-1.2,0.3-1.6,0.1c-0.5-0.1-0.8-0.5-1-1s-0.2-1,0.1-1.4c0.3-0.4,0.7-0.7,1.3-0.9L90.2,126.3z
		 M89.6,127.5l-0.1,0c-0.3,0.1-0.5,0.2-0.6,0.4c-0.1,0.2-0.2,0.4-0.1,0.7s0.3,0.4,0.5,0.5s0.5,0,0.7-0.1l0.1,0L89.6,127.5z"/>
	<path d="M85.6,128.9c0.1,0.5,0.1,1,0,1.5s-0.3,1-0.5,1.4s-0.6,0.8-1,1.1c-0.4,0.3-0.9,0.5-1.4,0.6s-1,0.1-1.5,0
		c-0.5-0.1-1-0.3-1.4-0.5c-0.4-0.3-0.8-0.6-1.1-1c-0.3-0.4-0.5-0.9-0.6-1.4c-0.1-0.5-0.1-1,0-1.5c0.1-0.5,0.3-1,0.5-1.4
		c0.3-0.4,0.6-0.8,1-1.1c0.4-0.3,0.9-0.5,1.4-0.6c0.5-0.1,1-0.1,1.5,0s1,0.3,1.4,0.5s0.8,0.6,1.1,1
		C85.3,127.9,85.5,128.4,85.6,128.9z M84.6,129.1c-0.1-0.4-0.2-0.7-0.5-1c-0.2-0.3-0.5-0.5-0.8-0.7c-0.3-0.2-0.6-0.3-1-0.4
		s-0.7-0.1-1.1,0c-0.4,0.1-0.7,0.2-1,0.5c-0.3,0.2-0.5,0.5-0.7,0.8c-0.2,0.3-0.3,0.6-0.4,1c-0.1,0.4-0.1,0.7,0,1.1
		c0.1,0.4,0.2,0.7,0.5,1c0.2,0.3,0.5,0.5,0.8,0.7s0.6,0.3,1,0.4c0.4,0.1,0.7,0.1,1.1,0c0.4-0.1,0.7-0.2,1-0.5
		c0.3-0.2,0.5-0.5,0.7-0.8c0.2-0.3,0.3-0.6,0.4-1C84.7,129.9,84.7,129.5,84.6,129.1z M81.3,127.3c0.3-0.1,0.7-0.1,1,0
		c0.3,0.1,0.6,0.2,0.9,0.3c0.3,0.2,0.5,0.4,0.7,0.7c0.2,0.3,0.3,0.6,0.4,0.9c0.1,0.3,0.1,0.7,0,1c-0.1,0.3-0.2,0.6-0.3,0.9
		s-0.4,0.5-0.7,0.7c-0.3,0.2-0.6,0.3-0.9,0.4c-0.3,0.1-0.7,0.1-1,0c-0.3-0.1-0.6-0.2-0.9-0.3c-0.3-0.2-0.5-0.4-0.7-0.7
		s-0.3-0.6-0.4-0.9c-0.1-0.3-0.1-0.7,0-1c0.1-0.3,0.2-0.6,0.3-0.9s0.4-0.5,0.7-0.7S81,127.4,81.3,127.3z M83.4,129.4
		c0-0.2-0.1-0.4-0.3-0.6c-0.1-0.2-0.3-0.3-0.4-0.4c-0.2-0.1-0.4-0.2-0.6-0.2c-0.2,0-0.4,0-0.6,0c-0.2,0-0.4,0.1-0.6,0.3
		c-0.2,0.1-0.3,0.3-0.4,0.4c-0.1,0.2-0.2,0.4-0.2,0.6c0,0.2,0,0.4,0,0.6c0,0.2,0.1,0.4,0.3,0.6s0.3,0.3,0.4,0.4
		c0.2,0.1,0.4,0.2,0.6,0.2c0.2,0,0.4,0,0.6,0c0.2,0,0.4-0.1,0.6-0.3c0.2-0.1,0.3-0.3,0.4-0.4c0.1-0.2,0.2-0.4,0.2-0.6
		C83.4,129.8,83.4,129.6,83.4,129.4z"/>
	<path d="M77.4,130.7c0,0.5,0,1-0.2,1.5c-0.2,0.5-0.4,0.9-0.7,1.3c-0.3,0.4-0.7,0.7-1.1,0.9c-0.4,0.2-0.9,0.4-1.5,0.4
		c-0.5,0-1,0-1.5-0.2c-0.5-0.2-0.9-0.4-1.3-0.7c-0.4-0.3-0.7-0.7-0.9-1.1s-0.4-0.9-0.4-1.5c0-0.5,0-1,0.2-1.5
		c0.2-0.5,0.4-0.9,0.7-1.3c0.3-0.4,0.7-0.7,1.1-0.9c0.4-0.2,0.9-0.4,1.5-0.4c0.5,0,1,0,1.5,0.2s0.9,0.4,1.3,0.7
		c0.4,0.3,0.7,0.7,0.9,1.1C77.2,129.7,77.4,130.2,77.4,130.7z M76.4,130.8c0-0.4-0.1-0.7-0.3-1.1s-0.4-0.6-0.7-0.8
		c-0.3-0.2-0.6-0.4-0.9-0.5s-0.7-0.2-1.1-0.1c-0.4,0-0.7,0.1-1.1,0.3c-0.3,0.2-0.6,0.4-0.8,0.7c-0.2,0.3-0.4,0.6-0.5,0.9
		c-0.1,0.4-0.2,0.7-0.1,1.1c0,0.4,0.1,0.7,0.3,1.1s0.4,0.6,0.7,0.8c0.3,0.2,0.6,0.4,0.9,0.5c0.4,0.1,0.7,0.2,1.1,0.1
		c0.4,0,0.7-0.1,1.1-0.3c0.3-0.2,0.6-0.4,0.8-0.7c0.2-0.3,0.4-0.6,0.5-0.9C76.4,131.6,76.4,131.2,76.4,130.8z M73.3,128.6
		c0.4,0,0.7,0,1,0.1c0.3,0.1,0.6,0.3,0.8,0.5s0.5,0.5,0.6,0.8s0.3,0.6,0.3,1c0,0.4,0,0.7-0.1,1c-0.1,0.3-0.3,0.6-0.5,0.8
		s-0.5,0.5-0.8,0.6s-0.6,0.3-1,0.3s-0.7,0-1-0.1c-0.3-0.1-0.6-0.3-0.8-0.5s-0.5-0.5-0.6-0.8s-0.3-0.6-0.3-1c0-0.4,0-0.7,0.1-1
		c0.1-0.3,0.3-0.6,0.5-0.8c0.2-0.3,0.5-0.5,0.8-0.6S73,128.6,73.3,128.6z M75.1,130.9c0-0.2-0.1-0.4-0.2-0.6
		c-0.1-0.2-0.2-0.3-0.4-0.5s-0.3-0.2-0.5-0.3c-0.2-0.1-0.4-0.1-0.6-0.1s-0.4,0.1-0.6,0.2c-0.2,0.1-0.3,0.2-0.5,0.4
		c-0.1,0.2-0.2,0.3-0.3,0.5c-0.1,0.2-0.1,0.4-0.1,0.6s0.1,0.4,0.2,0.6c0.1,0.2,0.2,0.3,0.4,0.5c0.2,0.1,0.3,0.2,0.5,0.3
		c0.2,0.1,0.4,0.1,0.6,0.1c0.2,0,0.4-0.1,0.6-0.2c0.2-0.1,0.3-0.2,0.5-0.4s0.2-0.3,0.3-0.5C75.1,131.4,75.1,131.1,75.1,130.9z"/>
	<path d="M66.8,135l-1.1-3.2l-1.4,3.1l-2.6-0.1l3.1-7.2l1.9,0.1l2.6,7.4L66.8,135z M65.6,128.5l-2.4,5.5l0.3,0l2.2-5l1.8,5.1l0.3,0
		l-2-5.6L65.6,128.5z"/>
	<path d="M60.9,134.7l-4.3-0.6l0.3-1.9l2,0.3l0.1-0.8l-1.9-0.3l0.2-1.8l1.9,0.3l0.1-0.8l-2-0.3l0.3-1.9l4.4,0.6L60.9,134.7z
		 M58.3,127.8l0,0.3l2.2,0.3l-0.3,2.4l-2.1-0.3l0,0.3l2.1,0.3l-0.3,2.4l-2.2-0.3l0,0.3l2.5,0.3l0.8-5.5L58.3,127.8z"/>
	<path d="M40.5,126.3c0.1,0.2,0.2,0.3,0.3,0.5c0.2,0.1,0.3,0.2,0.5,0.3c0.2,0.1,0.4,0.1,0.6,0.1c0.2,0,0.4,0,0.5-0.1
		c0.2-0.1,0.3-0.2,0.5-0.3c0.1-0.1,0.3-0.3,0.4-0.5c0.1-0.2,0.1-0.4,0.1-0.6s0-0.4-0.1-0.6c-0.1-0.2-0.2-0.3-0.3-0.5
		c-0.1-0.1-0.3-0.3-0.5-0.4c-0.2-0.1-0.5-0.1-0.7-0.1c-0.2,0-0.5,0.1-0.7,0.2l0.6,0.3l-0.6,1.4l-2.6-1.2l1-2.2
		c0.3-0.2,0.6-0.4,0.9-0.5s0.6-0.2,1-0.2c0.3,0,0.7,0,1,0c0.3,0.1,0.7,0.2,1,0.3c0.5,0.2,0.9,0.5,1.2,0.9c0.3,0.4,0.6,0.8,0.8,1.3
		c0.2,0.5,0.3,0.9,0.2,1.5s-0.1,1-0.4,1.5c-0.2,0.5-0.5,0.9-0.9,1.2s-0.8,0.6-1.2,0.8s-0.9,0.3-1.4,0.3c-0.5,0-1-0.1-1.5-0.3
		c-0.4-0.2-0.7-0.4-0.9-0.6c-0.2-0.2-0.4-0.4-0.6-0.6c-0.2-0.2-0.3-0.4-0.4-0.6L40.5,126.3z M39.8,127.6c0.1,0.1,0.2,0.2,0.2,0.2
		c0.1,0.1,0.2,0.1,0.3,0.2c0.1,0.1,0.3,0.2,0.4,0.2c0.4,0.2,0.7,0.2,1.1,0.3c0.4,0,0.7,0,1-0.2c0.3-0.1,0.6-0.3,0.9-0.6
		c0.3-0.3,0.5-0.6,0.7-1c0.2-0.4,0.3-0.8,0.3-1.1c0-0.4-0.1-0.7-0.2-1.1s-0.3-0.6-0.6-0.9c-0.3-0.3-0.6-0.5-0.9-0.6
		c-0.5-0.2-0.9-0.3-1.4-0.2s-0.9,0.2-1.3,0.4l-0.6,1.3l1.1,0.5l0.1-0.2l-0.8-0.4l0.5-1c0.3-0.2,0.7-0.3,1.1-0.4c0.4,0,0.8,0,1.2,0.2
		c0.3,0.1,0.6,0.3,0.8,0.6c0.2,0.2,0.4,0.5,0.5,0.8c0.1,0.3,0.2,0.6,0.2,1c0,0.3-0.1,0.7-0.2,1c-0.2,0.3-0.4,0.6-0.6,0.9
		c-0.2,0.2-0.5,0.4-0.8,0.5c-0.3,0.1-0.6,0.2-0.9,0.1c-0.3,0-0.6-0.1-1-0.2c-0.1-0.1-0.2-0.1-0.3-0.2c-0.1-0.1-0.2-0.1-0.3-0.2
		c-0.1-0.1-0.2-0.1-0.2-0.2L39.8,127.6z"/>
	<path d="M36.2,126.9l-2.2-1.3c-0.4-0.2-0.7-0.5-1-0.8s-0.5-0.7-0.6-1s-0.2-0.7-0.1-1.1s0.2-0.8,0.4-1.2c0.2-0.3,0.4-0.6,0.6-0.7
		s0.4-0.3,0.6-0.4c0.2-0.1,0.4-0.1,0.7-0.2l0.1-2.8l2.3,1.4l0,2.2l1-1.6l2,1.2L36.2,126.9z M36.7,121.7c-0.2-0.1-0.5-0.3-0.8-0.4
		l0-2l-0.3-0.2l0,2.2c-0.4-0.1-0.8-0.1-1.1,0.1s-0.6,0.4-0.9,0.8c-0.2,0.3-0.3,0.5-0.3,0.8c0,0.3,0,0.5,0.1,0.8
		c0.1,0.3,0.3,0.5,0.5,0.7c0.2,0.2,0.5,0.4,0.8,0.6l1,0.6l2.9-4.8l-0.2-0.1l-0.9,1.4L36.7,121.7z M37.3,122.4l-1.8,2.9l-0.8-0.5
		c-0.6-0.3-0.9-0.7-1.1-1.2c-0.2-0.4-0.1-0.9,0.2-1.4s0.7-0.7,1.1-0.8c0.5-0.1,1,0.1,1.6,0.4L37.3,122.4z M36,122.6l-0.1-0.1
		c-0.2-0.1-0.5-0.2-0.7-0.2c-0.2,0-0.4,0.1-0.6,0.4c-0.2,0.3-0.2,0.5-0.1,0.7c0.1,0.2,0.3,0.4,0.5,0.5l0.1,0.1L36,122.6z"/>
	<path d="M32.5,120.4c-0.3,0.4-0.7,0.7-1.2,1c-0.4,0.2-0.9,0.4-1.4,0.5s-1,0-1.5-0.1c-0.5-0.1-0.9-0.4-1.4-0.7
		c-0.4-0.3-0.7-0.7-1-1.2c-0.2-0.4-0.4-0.9-0.5-1.4s0-1,0.1-1.5c0.1-0.5,0.4-0.9,0.7-1.4c0.3-0.4,0.7-0.7,1.2-1
		c0.4-0.2,0.9-0.4,1.4-0.5s1,0,1.5,0.1c0.5,0.1,0.9,0.4,1.4,0.7s0.7,0.7,1,1.2c0.2,0.4,0.4,0.9,0.5,1.4c0.1,0.5,0,1-0.1,1.5
		C33,119.5,32.8,120,32.5,120.4z M31.7,119.8c0.2-0.3,0.4-0.6,0.5-1s0.1-0.7,0.1-1.1c0-0.4-0.2-0.7-0.3-1c-0.2-0.3-0.4-0.6-0.7-0.9
		c-0.3-0.2-0.6-0.4-1-0.5c-0.4-0.1-0.7-0.1-1.1-0.1c-0.4,0-0.7,0.2-1,0.3c-0.3,0.2-0.6,0.4-0.9,0.7c-0.2,0.3-0.4,0.6-0.5,1
		c-0.1,0.4-0.1,0.7-0.1,1.1c0,0.4,0.2,0.7,0.3,1c0.2,0.3,0.4,0.6,0.7,0.9s0.6,0.4,1,0.5c0.4,0.1,0.7,0.1,1.1,0.1
		c0.4,0,0.7-0.2,1-0.3C31.1,120.3,31.4,120.1,31.7,119.8z M31,116c0.3,0.2,0.5,0.5,0.6,0.8c0.2,0.3,0.3,0.6,0.3,0.9s0,0.6-0.1,1
		s-0.2,0.6-0.5,0.9s-0.5,0.5-0.8,0.7c-0.3,0.2-0.6,0.3-0.9,0.3c-0.3,0-0.6,0-1-0.1c-0.3-0.1-0.6-0.2-0.9-0.5
		c-0.3-0.2-0.5-0.5-0.7-0.8c-0.2-0.3-0.3-0.6-0.3-0.9c0-0.3,0-0.6,0.1-1s0.2-0.6,0.5-0.9c0.2-0.3,0.5-0.5,0.8-0.6
		c0.3-0.2,0.6-0.3,0.9-0.3c0.3,0,0.6,0,1,0.1C30.5,115.7,30.7,115.8,31,116z M30.7,119c0.1-0.2,0.2-0.3,0.3-0.5
		c0.1-0.2,0.1-0.4,0-0.6c0-0.2-0.1-0.4-0.2-0.6c-0.1-0.2-0.2-0.3-0.4-0.5s-0.3-0.2-0.5-0.3c-0.2-0.1-0.4-0.1-0.6,0
		c-0.2,0-0.4,0.1-0.6,0.2c-0.2,0.1-0.3,0.2-0.5,0.4s-0.2,0.3-0.3,0.5c-0.1,0.2-0.1,0.4,0,0.6s0.1,0.4,0.2,0.6
		c0.1,0.2,0.2,0.3,0.4,0.5s0.3,0.2,0.5,0.3c0.2,0.1,0.4,0.1,0.6,0c0.2,0,0.4-0.1,0.6-0.2C30.4,119.3,30.5,119.1,30.7,119z"/>
	<path d="M25.9,115.1c-0.4,0.4-0.8,0.6-1.3,0.8c-0.5,0.2-1,0.3-1.5,0.3c-0.5,0-1-0.1-1.4-0.3c-0.5-0.2-0.9-0.5-1.3-0.9
		c-0.4-0.4-0.6-0.8-0.8-1.3c-0.2-0.5-0.3-1-0.3-1.5c0-0.5,0.1-1,0.3-1.4s0.5-0.9,0.9-1.3c0.4-0.4,0.8-0.6,1.3-0.8
		c0.5-0.2,1-0.3,1.5-0.3c0.5,0,1,0.1,1.4,0.3s0.9,0.5,1.3,0.9c0.4,0.4,0.6,0.8,0.8,1.3c0.2,0.5,0.3,1,0.3,1.5c0,0.5-0.1,1-0.3,1.4
		C26.6,114.4,26.3,114.8,25.9,115.1z M25.2,114.4c0.3-0.3,0.5-0.6,0.6-0.9c0.1-0.3,0.2-0.7,0.2-1.1c0-0.4-0.1-0.7-0.2-1.1
		c-0.1-0.3-0.3-0.7-0.6-0.9c-0.3-0.3-0.6-0.5-0.9-0.6s-0.7-0.2-1.1-0.2c-0.4,0-0.7,0.1-1.1,0.2c-0.3,0.1-0.7,0.3-0.9,0.6
		s-0.5,0.6-0.6,0.9c-0.1,0.3-0.2,0.7-0.2,1.1c0,0.4,0.1,0.7,0.2,1.1c0.1,0.3,0.3,0.7,0.6,0.9c0.3,0.3,0.6,0.5,0.9,0.6
		s0.7,0.2,1.1,0.2s0.7-0.1,1.1-0.2C24.6,114.9,24.9,114.7,25.2,114.4z M25,110.6c0.2,0.3,0.4,0.5,0.5,0.8c0.1,0.3,0.2,0.6,0.2,1
		c0,0.3-0.1,0.6-0.2,0.9c-0.1,0.3-0.3,0.6-0.6,0.8s-0.5,0.4-0.8,0.5c-0.3,0.1-0.6,0.2-1,0.2c-0.3,0-0.6-0.1-0.9-0.2
		c-0.3-0.1-0.6-0.3-0.8-0.6c-0.2-0.3-0.4-0.5-0.5-0.8c-0.1-0.3-0.2-0.6-0.2-1c0-0.3,0.1-0.6,0.2-0.9c0.1-0.3,0.3-0.6,0.6-0.8
		s0.5-0.4,0.8-0.5s0.6-0.2,1-0.2s0.6,0.1,0.9,0.2C24.5,110.2,24.8,110.4,25,110.6z M24.3,113.5c0.2-0.1,0.3-0.3,0.3-0.5
		s0.1-0.4,0.1-0.6c0-0.2,0-0.4-0.1-0.6c-0.1-0.2-0.2-0.4-0.3-0.5c-0.1-0.2-0.3-0.3-0.5-0.3c-0.2-0.1-0.4-0.1-0.6-0.1
		c-0.2,0-0.4,0-0.6,0.1s-0.4,0.2-0.5,0.3c-0.2,0.1-0.3,0.3-0.3,0.5c-0.1,0.2-0.1,0.4-0.1,0.6c0,0.2,0,0.4,0.1,0.6
		c0.1,0.2,0.2,0.4,0.3,0.5c0.1,0.2,0.3,0.3,0.5,0.3c0.2,0.1,0.4,0.1,0.6,0.1c0.2,0,0.4,0,0.6-0.1C24,113.7,24.1,113.6,24.3,113.5z"
		/>
	<path d="M15.9,109.5l1.8-2.9l-3.3,0.9l-1.5-2.1l7.6-2.1l1.1,1.5l-4.2,6.7L15.9,109.5z M20.2,104.6l-5.8,1.6l0.2,0.2l5.3-1.4
		l-2.9,4.6l0.2,0.2l3.2-5.1L20.2,104.6z"/>
	<path d="M12.5,104.8l-2.2-3.7l1.7-1l1,1.7l0.7-0.4l-1-1.7l1.6-0.9l1,1.7l0.7-0.4l-1.1-1.8l1.7-1l2.3,3.8L12.5,104.8z M16.2,98.4
		L16,98.5l1.1,1.9l-2.1,1.2L14,99.8l-0.2,0.1l1.1,1.8l-2,1.2l-1.1-1.9l-0.2,0.1l1.3,2.1l4.8-2.9L16.2,98.4z"/>
	<path d="M6.3,83.6c-0.1,0.2-0.1,0.3-0.1,0.5c0,0.2,0,0.4,0.1,0.6c0.1,0.2,0.1,0.4,0.3,0.5s0.3,0.3,0.4,0.4c0.2,0.1,0.3,0.1,0.5,0.2
		c0.2,0,0.4,0,0.6,0c0.2-0.1,0.4-0.1,0.6-0.3C8.8,85.3,8.9,85.2,9,85c0.1-0.2,0.2-0.4,0.2-0.6c0-0.2,0-0.4,0-0.6
		c-0.1-0.2-0.2-0.4-0.3-0.6c-0.2-0.2-0.3-0.3-0.5-0.4l0.2,0.6l-1.5,0.4l-0.7-2.7l2.4-0.6c0.3,0.1,0.6,0.2,0.9,0.4
		c0.3,0.2,0.6,0.4,0.8,0.6c0.2,0.2,0.4,0.5,0.6,0.8c0.2,0.3,0.3,0.6,0.4,1c0.1,0.5,0.2,1,0.1,1.5c-0.1,0.5-0.2,1-0.5,1.4
		c-0.2,0.4-0.6,0.8-1,1.1c-0.4,0.3-0.9,0.5-1.4,0.7c-0.5,0.1-1,0.2-1.5,0.1c-0.5-0.1-1-0.2-1.4-0.5c-0.4-0.2-0.8-0.6-1.1-1
		s-0.5-0.8-0.7-1.4c-0.1-0.4-0.1-0.8-0.1-1.1c0-0.3,0-0.6,0.1-0.8c0.1-0.3,0.1-0.5,0.2-0.7L6.3,83.6z M4.9,83.8c0,0.1,0,0.2,0,0.3
		c0,0.1,0,0.2,0,0.4c0,0.1,0,0.3,0.1,0.5c0.1,0.4,0.3,0.7,0.5,1c0.2,0.3,0.5,0.5,0.8,0.7c0.3,0.2,0.6,0.3,1,0.4
		c0.4,0.1,0.8,0,1.2-0.1c0.4-0.1,0.8-0.3,1.1-0.5s0.5-0.5,0.7-0.8c0.2-0.3,0.3-0.6,0.3-1s0-0.7-0.1-1.1c-0.1-0.5-0.4-0.9-0.7-1.2
		S9,81.7,8.5,81.6l-1.4,0.4L7.4,83L7.7,83l-0.2-0.9l1.1-0.3c0.4,0.1,0.7,0.4,1,0.7c0.3,0.3,0.5,0.7,0.6,1.1c0.1,0.3,0.1,0.7,0.1,1
		s-0.1,0.6-0.3,0.9c-0.2,0.3-0.4,0.5-0.6,0.7c-0.3,0.2-0.6,0.4-0.9,0.4c-0.4,0.1-0.7,0.1-1,0.1c-0.3,0-0.6-0.2-0.9-0.3
		c-0.3-0.2-0.5-0.4-0.7-0.6c-0.2-0.3-0.3-0.6-0.4-0.9c0-0.1-0.1-0.3-0.1-0.4s0-0.2,0-0.3c0-0.1,0-0.2,0-0.3L4.9,83.8z"/>
	<path d="M3.1,80.5L2.7,78c-0.1-0.5-0.1-0.9,0-1.3c0.1-0.4,0.2-0.8,0.4-1.1C3.4,75.3,3.6,75,4,74.8s0.7-0.3,1.2-0.4
		c0.4,0,0.7,0,0.9,0c0.3,0.1,0.5,0.2,0.7,0.3C7,74.8,7.2,75,7.3,75.1l2.2-1.7l0.3,2.7l-1.7,1.3l1.8-0.2l0.3,2.3L3.1,80.5z M7.5,77.7
		c0-0.3-0.1-0.6-0.2-0.8l1.6-1.3l0-0.3l-1.7,1.3c-0.2-0.4-0.4-0.7-0.8-0.9c-0.3-0.2-0.7-0.3-1.2-0.2c-0.3,0-0.6,0.1-0.8,0.3
		s-0.4,0.3-0.5,0.6c-0.1,0.2-0.2,0.5-0.3,0.8s0,0.6,0,1l0.2,1.2l5.5-0.7l0-0.3l-1.7,0.2L7.5,77.7z M7.4,78.6L4,79l-0.1-0.9
		c-0.1-0.7,0-1.2,0.2-1.6c0.2-0.4,0.6-0.7,1.2-0.7c0.5-0.1,1,0.1,1.3,0.4s0.5,0.8,0.6,1.5L7.4,78.6z M6.3,77.8l0-0.1
		c0-0.3-0.1-0.5-0.3-0.7c-0.1-0.2-0.4-0.2-0.7-0.2c-0.3,0-0.5,0.2-0.6,0.4c-0.1,0.2-0.1,0.5-0.1,0.7l0,0.1L6.3,77.8z"/>
	<path d="M5.9,73.7c-0.5,0-1-0.1-1.5-0.3c-0.5-0.2-0.9-0.5-1.2-0.8c-0.4-0.3-0.6-0.7-0.8-1.2c-0.2-0.5-0.3-1-0.3-1.5
		c0-0.5,0.1-1,0.3-1.5c0.2-0.5,0.5-0.9,0.8-1.2c0.3-0.4,0.7-0.6,1.2-0.8s1-0.3,1.5-0.3c0.5,0,1,0.1,1.5,0.3c0.5,0.2,0.9,0.5,1.2,0.8
		c0.4,0.3,0.6,0.7,0.8,1.2c0.2,0.5,0.3,1,0.3,1.5c0,0.5-0.1,1-0.3,1.5S9,72.2,8.6,72.5c-0.3,0.4-0.7,0.6-1.2,0.8
		C6.9,73.6,6.4,73.7,5.9,73.7z M5.9,72.6c0.4,0,0.8-0.1,1.1-0.2c0.3-0.2,0.6-0.4,0.9-0.6c0.3-0.3,0.4-0.6,0.6-0.9
		c0.1-0.3,0.2-0.7,0.2-1.1S8.6,69,8.4,68.7c-0.2-0.3-0.4-0.6-0.6-0.9c-0.3-0.3-0.6-0.4-0.9-0.6S6.2,67,5.8,67
		c-0.4,0-0.8,0.1-1.1,0.2c-0.3,0.2-0.6,0.4-0.9,0.6s-0.4,0.6-0.6,0.9C3.1,69.1,3,69.5,3,69.9c0,0.4,0.1,0.8,0.2,1.1
		c0.2,0.3,0.4,0.6,0.6,0.9s0.6,0.4,0.9,0.6S5.5,72.7,5.9,72.6z M8.4,69.8c0,0.4-0.1,0.7-0.2,1c-0.1,0.3-0.3,0.6-0.5,0.8
		c-0.2,0.2-0.5,0.4-0.8,0.6c-0.3,0.1-0.6,0.2-1,0.2s-0.7-0.1-1-0.2c-0.3-0.1-0.6-0.3-0.8-0.5s-0.4-0.5-0.6-0.8
		c-0.1-0.3-0.2-0.6-0.2-1c0-0.4,0.1-0.7,0.2-1c0.1-0.3,0.3-0.6,0.5-0.8c0.2-0.2,0.5-0.4,0.8-0.6c0.3-0.1,0.6-0.2,1-0.2
		c0.4,0,0.7,0.1,1,0.2c0.3,0.1,0.6,0.3,0.8,0.5c0.2,0.2,0.4,0.5,0.6,0.8C8.3,69.1,8.4,69.4,8.4,69.8z M5.9,71.4c0.2,0,0.4,0,0.6-0.1
		C6.7,71.2,6.8,71,7,70.9c0.1-0.1,0.2-0.3,0.3-0.5c0.1-0.2,0.1-0.4,0.1-0.6c0-0.2,0-0.4-0.1-0.6c-0.1-0.2-0.2-0.3-0.3-0.5
		c-0.1-0.1-0.3-0.2-0.5-0.3c-0.2-0.1-0.4-0.1-0.6-0.1s-0.4,0-0.6,0.1c-0.2,0.1-0.3,0.2-0.5,0.3s-0.2,0.3-0.3,0.5
		c-0.1,0.2-0.1,0.4-0.1,0.6c0,0.2,0,0.4,0.1,0.6c0.1,0.2,0.2,0.3,0.3,0.5c0.1,0.1,0.3,0.2,0.5,0.3C5.5,71.3,5.7,71.4,5.9,71.4z"/>
	<path d="M5.9,65.2c-0.5-0.1-1-0.2-1.4-0.5c-0.4-0.3-0.8-0.6-1.1-1c-0.3-0.4-0.5-0.8-0.7-1.3c-0.1-0.5-0.2-1-0.1-1.5
		c0.1-0.5,0.2-1,0.5-1.4c0.3-0.4,0.6-0.8,1-1.1c0.4-0.3,0.8-0.5,1.3-0.7s1-0.2,1.5-0.1c0.5,0.1,1,0.2,1.4,0.5c0.4,0.3,0.8,0.6,1.1,1
		c0.3,0.4,0.5,0.8,0.7,1.3c0.1,0.5,0.2,1,0.1,1.5c-0.1,0.5-0.2,1-0.5,1.4c-0.3,0.4-0.6,0.8-1,1.1c-0.4,0.3-0.8,0.5-1.3,0.7
		S6.4,65.2,5.9,65.2z M6,64.1c0.4,0,0.8,0,1.1-0.1c0.4-0.1,0.7-0.3,1-0.5c0.3-0.2,0.5-0.5,0.7-0.8s0.3-0.7,0.4-1.1
		c0-0.4,0-0.8-0.1-1.1s-0.3-0.7-0.5-1c-0.2-0.3-0.5-0.5-0.8-0.7c-0.3-0.2-0.7-0.3-1.1-0.4c-0.4,0-0.8,0-1.1,0.1s-0.7,0.3-1,0.5
		c-0.3,0.2-0.5,0.5-0.7,0.8c-0.2,0.3-0.3,0.7-0.4,1.1c0,0.4,0,0.8,0.1,1.1c0.1,0.4,0.3,0.7,0.5,1c0.2,0.3,0.5,0.5,0.8,0.7
		C5.3,64,5.6,64.1,6,64.1z M8.9,61.7c0,0.3-0.2,0.7-0.3,1c-0.2,0.3-0.4,0.5-0.6,0.7c-0.3,0.2-0.5,0.3-0.9,0.4
		c-0.3,0.1-0.7,0.1-1,0.1s-0.7-0.2-1-0.3c-0.3-0.2-0.5-0.4-0.7-0.6C4.2,62.6,4,62.4,3.9,62c-0.1-0.3-0.1-0.7-0.1-1s0.2-0.7,0.3-1
		s0.4-0.5,0.6-0.7s0.5-0.3,0.9-0.4c0.3-0.1,0.7-0.1,1-0.1s0.7,0.2,1,0.3c0.3,0.2,0.5,0.4,0.7,0.6c0.2,0.3,0.3,0.5,0.4,0.9
		C8.9,61,8.9,61.3,8.9,61.7z M6.2,62.9c0.2,0,0.4,0,0.6,0s0.4-0.1,0.5-0.3c0.2-0.1,0.3-0.3,0.4-0.4c0.1-0.2,0.2-0.4,0.2-0.6
		c0-0.2,0-0.4,0-0.6c-0.1-0.2-0.1-0.4-0.3-0.5c-0.1-0.2-0.3-0.3-0.4-0.4c-0.2-0.1-0.4-0.2-0.6-0.2s-0.4,0-0.6,0S5.6,60,5.4,60.1
		c-0.2,0.1-0.3,0.3-0.4,0.4c-0.1,0.2-0.2,0.4-0.2,0.6c0,0.2,0,0.4,0,0.6s0.1,0.4,0.3,0.5c0.1,0.2,0.3,0.3,0.4,0.4S6,62.9,6.2,62.9z"
		/>
	<path d="M4,53.8l3.4-0.4l-2.8-2L5.3,49l6.4,4.6l-0.5,1.8l-7.8,0.9L4,53.8z M10.6,54.2l-4.8-3.5l-0.1,0.3l4.4,3.2l-5.4,0.6l-0.1,0.3
		l5.9-0.7L10.6,54.2z"/>
	<path d="M5.6,48.2l1.5-4l1.8,0.7l-0.7,1.9L9,47l0.7-1.8l1.7,0.6l-0.7,1.8l0.8,0.3l0.7-1.9l1.8,0.7l-1.5,4.1L5.6,48.2z M12.9,47.1
		l-0.2-0.1l-0.8,2.1l-2.3-0.8l0.7-2l-0.2-0.1l-0.7,2l-2.2-0.8l0.8-2.1l-0.2-0.1l-0.9,2.3l5.2,2L12.9,47.1z"/>
	<path d="M18.5,29.7c-0.2,0-0.4,0.1-0.6,0.2c-0.2,0.1-0.3,0.3-0.5,0.4c-0.1,0.2-0.2,0.4-0.3,0.6c-0.1,0.2-0.1,0.4,0,0.6
		c0,0.2,0.1,0.4,0.2,0.6c0.1,0.2,0.3,0.4,0.5,0.5c0.2,0.1,0.4,0.2,0.6,0.3c0.2,0.1,0.4,0.1,0.6,0c0.2,0,0.4-0.1,0.6-0.2
		c0.2-0.1,0.4-0.3,0.5-0.4c0.2-0.2,0.3-0.4,0.3-0.7c0-0.2,0-0.5,0-0.7L20,31.5l-1.3-1l1.9-2.4l2.1,1.6c0.1,0.3,0.2,0.7,0.3,1.1
		c0.1,0.4,0.1,0.7,0,1.1c0,0.4-0.1,0.7-0.3,1.1c-0.1,0.4-0.3,0.7-0.6,1c-0.4,0.5-0.8,0.8-1.3,1.1c-0.5,0.3-1,0.4-1.5,0.5
		c-0.5,0.1-1.1,0-1.6-0.1c-0.5-0.1-1-0.4-1.5-0.7c-0.5-0.4-0.8-0.8-1.1-1.2c-0.3-0.5-0.5-1-0.5-1.5c-0.1-0.5-0.1-1,0.1-1.6
		c0.1-0.5,0.4-1,0.7-1.5c0.3-0.4,0.5-0.6,0.8-0.8c0.3-0.2,0.5-0.4,0.7-0.5c0.3-0.1,0.5-0.2,0.7-0.3L18.5,29.7z M17.3,28.7
		c-0.1,0.1-0.2,0.1-0.3,0.2c-0.1,0.1-0.2,0.2-0.3,0.3c-0.1,0.1-0.2,0.2-0.3,0.4c-0.3,0.3-0.4,0.7-0.5,1.1c-0.1,0.4-0.1,0.8-0.1,1.1
		c0,0.4,0.2,0.7,0.4,1.1s0.5,0.7,0.8,0.9c0.4,0.3,0.7,0.5,1.1,0.6s0.8,0.1,1.2,0.1c0.4-0.1,0.7-0.2,1.1-0.4c0.3-0.2,0.7-0.5,0.9-0.8
		c0.3-0.4,0.5-0.9,0.6-1.4c0.1-0.5,0-1-0.2-1.5l-1.2-1l-0.8,1l0.2,0.2l0.6-0.8l1,0.7c0.1,0.4,0.2,0.9,0.1,1.3
		c-0.1,0.4-0.3,0.9-0.5,1.2c-0.2,0.3-0.5,0.5-0.8,0.7c-0.3,0.2-0.6,0.3-1,0.3s-0.7,0-1.1-0.1c-0.4-0.1-0.7-0.3-1-0.5
		s-0.6-0.5-0.8-0.9c-0.2-0.3-0.3-0.6-0.3-1c0-0.3,0-0.7,0.1-1s0.3-0.7,0.5-1c0.1-0.1,0.2-0.2,0.3-0.3c0.1-0.1,0.2-0.2,0.3-0.2
		c0.1-0.1,0.2-0.1,0.3-0.2L17.3,28.7z"/>
	<path d="M18.9,24.9l1.9-2c0.4-0.4,0.7-0.6,1.1-0.9c0.4-0.2,0.8-0.3,1.2-0.4c0.4,0,0.8,0,1.2,0.2c0.4,0.1,0.8,0.4,1.1,0.8
		c0.3,0.3,0.5,0.6,0.6,0.8c0.1,0.3,0.2,0.5,0.2,0.8c0,0.3,0,0.5,0,0.8l2.9,0.8l-2.1,2.1L25,27.3l1.4,1.4l-1.8,1.8L18.9,24.9z
		 M24.4,26.8c0.2-0.2,0.4-0.5,0.6-0.7l2.2,0.5l0.3-0.3l-2.3-0.6c0.2-0.4,0.3-0.8,0.2-1.2c0-0.4-0.2-0.8-0.6-1.1
		c-0.2-0.2-0.5-0.4-0.8-0.5c-0.3-0.1-0.6-0.1-0.9-0.1c-0.3,0-0.6,0.1-0.9,0.3c-0.3,0.2-0.6,0.4-0.8,0.6l-0.9,0.9l4.3,4.3l0.2-0.2
		l-1.3-1.3L24.4,26.8z M23.5,27.3l-2.6-2.6l0.7-0.7c0.5-0.5,1-0.8,1.5-0.9c0.5-0.1,1,0.1,1.4,0.5s0.6,0.9,0.5,1.4
		c-0.1,0.5-0.4,1-0.9,1.5L23.5,27.3z M23.5,25.9L23.5,25.9c0.3-0.3,0.4-0.5,0.5-0.8c0.1-0.2,0-0.5-0.3-0.7s-0.5-0.3-0.7-0.3
		c-0.2,0.1-0.5,0.2-0.7,0.4l-0.1,0.1L23.5,25.9z"/>
	<path d="M26.8,22.7c-0.4-0.5-0.6-1-0.7-1.5c-0.1-0.5-0.2-1.1-0.1-1.6s0.2-1,0.5-1.5c0.3-0.5,0.6-0.9,1.1-1.3s1-0.6,1.5-0.7
		c0.5-0.1,1.1-0.2,1.6-0.1c0.5,0.1,1,0.2,1.5,0.5c0.5,0.3,0.9,0.6,1.3,1.1c0.4,0.5,0.6,1,0.7,1.5s0.2,1.1,0.1,1.6
		c-0.1,0.5-0.2,1-0.5,1.5c-0.3,0.5-0.6,0.9-1.1,1.3c-0.5,0.4-1,0.6-1.5,0.7s-1.1,0.2-1.6,0.1c-0.5-0.1-1-0.2-1.5-0.5
		C27.6,23.5,27.2,23.1,26.8,22.7z M27.7,22c0.3,0.3,0.6,0.6,0.9,0.8s0.7,0.3,1.1,0.4s0.8,0,1.2-0.1s0.8-0.3,1.1-0.5
		c0.3-0.3,0.6-0.6,0.8-0.9s0.3-0.7,0.4-1.1s0-0.8-0.1-1.2s-0.3-0.8-0.5-1.1s-0.6-0.6-0.9-0.8s-0.7-0.3-1.1-0.4
		c-0.4-0.1-0.8,0-1.2,0.1s-0.8,0.3-1.1,0.5c-0.3,0.3-0.6,0.6-0.8,0.9s-0.3,0.7-0.4,1.1s0,0.8,0.1,1.2S27.4,21.7,27.7,22z M31.8,22.3
		c-0.3,0.2-0.6,0.4-1,0.5c-0.4,0.1-0.7,0.1-1.1,0.1c-0.4,0-0.7-0.2-1-0.3s-0.6-0.4-0.8-0.7s-0.4-0.6-0.5-1c-0.1-0.4-0.1-0.7-0.1-1.1
		c0-0.4,0.2-0.7,0.3-1c0.2-0.3,0.4-0.6,0.7-0.8c0.3-0.2,0.6-0.4,1-0.5c0.4-0.1,0.7-0.1,1.1-0.1c0.4,0,0.7,0.2,1,0.3s0.6,0.4,0.8,0.7
		s0.4,0.6,0.5,1c0.1,0.4,0.1,0.7,0.1,1.1c0,0.4-0.2,0.7-0.3,1C32.4,21.8,32.1,22.1,31.8,22.3z M28.8,21.2c0.1,0.2,0.3,0.3,0.5,0.4
		c0.2,0.1,0.4,0.2,0.6,0.2c0.2,0,0.4,0,0.6,0c0.2-0.1,0.4-0.2,0.6-0.3c0.2-0.1,0.3-0.3,0.4-0.5s0.2-0.4,0.2-0.6c0-0.2,0-0.4,0-0.6
		c-0.1-0.2-0.2-0.4-0.3-0.6c-0.1-0.2-0.3-0.3-0.5-0.4c-0.2-0.1-0.4-0.2-0.6-0.2c-0.2,0-0.4,0-0.6,0c-0.2,0.1-0.4,0.2-0.6,0.3
		c-0.2,0.1-0.3,0.3-0.4,0.5c-0.1,0.2-0.2,0.4-0.2,0.6c0,0.2,0,0.4,0,0.6C28.6,20.8,28.7,21,28.8,21.2z"/>
	<path d="M34.2,17.1c-0.3-0.5-0.4-1-0.5-1.6c-0.1-0.6,0-1.1,0.1-1.6c0.1-0.5,0.4-1,0.7-1.4s0.8-0.8,1.3-1.1c0.5-0.3,1-0.4,1.6-0.5
		s1.1,0,1.6,0.1c0.5,0.1,1,0.4,1.4,0.7c0.4,0.3,0.8,0.8,1.1,1.3c0.3,0.5,0.4,1,0.5,1.6c0.1,0.6,0,1.1-0.1,1.6
		c-0.1,0.5-0.4,1-0.7,1.4c-0.3,0.4-0.8,0.8-1.3,1.1c-0.5,0.3-1,0.4-1.6,0.5s-1.1,0-1.6-0.1c-0.5-0.1-1-0.4-1.4-0.7
		C34.8,18,34.4,17.6,34.2,17.1z M35.2,16.6c0.2,0.4,0.5,0.7,0.8,0.9c0.3,0.2,0.7,0.4,1.1,0.5c0.4,0.1,0.8,0.1,1.2,0.1
		c0.4,0,0.8-0.2,1.2-0.4c0.4-0.2,0.7-0.5,0.9-0.8c0.2-0.3,0.4-0.7,0.5-1.1c0.1-0.4,0.1-0.8,0.1-1.2c0-0.4-0.2-0.8-0.4-1.2
		c-0.2-0.4-0.5-0.7-0.8-0.9c-0.3-0.2-0.7-0.4-1.1-0.5C38.3,12,37.9,12,37.5,12c-0.4,0-0.8,0.2-1.2,0.4c-0.4,0.2-0.7,0.5-0.9,0.8
		c-0.2,0.3-0.4,0.7-0.5,1.1c-0.1,0.4-0.1,0.8-0.1,1.2C34.8,15.8,34.9,16.2,35.2,16.6z M39.2,17.5c-0.3,0.2-0.7,0.3-1,0.3
		c-0.4,0-0.7,0-1.1-0.1c-0.3-0.1-0.7-0.3-0.9-0.5c-0.3-0.2-0.5-0.5-0.7-0.8s-0.3-0.7-0.3-1c0-0.4,0-0.7,0.1-1.1
		c0.1-0.3,0.3-0.7,0.5-0.9c0.2-0.3,0.5-0.5,0.8-0.7s0.7-0.3,1-0.3c0.4,0,0.7,0,1.1,0.1c0.3,0.1,0.7,0.3,0.9,0.5
		c0.3,0.2,0.5,0.5,0.7,0.8s0.3,0.7,0.3,1c0,0.4,0,0.7-0.1,1.1c-0.1,0.3-0.3,0.7-0.5,0.9C39.8,17.1,39.5,17.3,39.2,17.5z M36.4,15.9
		c0.1,0.2,0.3,0.4,0.4,0.5c0.2,0.1,0.4,0.2,0.6,0.3c0.2,0.1,0.4,0.1,0.6,0.1c0.2,0,0.4-0.1,0.6-0.2c0.2-0.1,0.4-0.3,0.5-0.4
		s0.2-0.4,0.3-0.6c0.1-0.2,0.1-0.4,0.1-0.6c0-0.2-0.1-0.4-0.2-0.6c-0.1-0.2-0.3-0.4-0.4-0.5c-0.2-0.1-0.4-0.2-0.6-0.3
		c-0.2-0.1-0.4-0.1-0.6-0.1c-0.2,0-0.4,0.1-0.6,0.2s-0.4,0.3-0.5,0.4s-0.2,0.4-0.3,0.6c-0.1,0.2-0.1,0.4-0.1,0.6
		C36.2,15.5,36.3,15.7,36.4,15.9z"/>
	<path d="M43,8.2l2.5,2.8l0-3.7l2.6-1l-0.1,8.6l-1.9,0.7l-5.8-6.4L43,8.2z M46.9,14.2l0-6.5l-0.3,0.1l-0.1,5.9l-4-4.4l-0.3,0.1
		l4.4,4.8L46.9,14.2z"/>
	<path d="M49,6l4.6-1.2l0.5,2L52,7.4l0.2,0.9l2.1-0.5l0.5,1.9l-2.1,0.5l0.2,0.9l2.2-0.6l0.5,2L51,13.8L49,6z M54.5,11.9l-0.1-0.3
		l-2.3,0.6l-0.7-2.5l2.2-0.6l-0.1-0.3l-2.2,0.6l-0.6-2.5l2.3-0.6L53,6l-2.6,0.7l1.5,5.9L54.5,11.9z"/>
</g>
</svg>
